<svg id="aa1b89e7-aeef-47fa-98ed-b4ef9a2d3ac8" data-name="Layer 1" xmlns="http://www.w3.org/2000/svg" width="732.85335" height="614.57198" viewBox="0 0 732.85335 614.57198"><polygon points="322.091 232.107 486.005 91.904 486.765 93.962 323.429 233.671 322.091 232.107" fill="#2f2e41"/><circle cx="499.94653" cy="99.61248" r="24.02225" fill="#5383ca"/><path d="M935.98936,295.52008H716.6513a7.15334,7.15334,0,1,1,0-14.30667H935.98936a7.15334,7.15334,0,1,1,0,14.30667Z" transform="translate(-233.57333 -142.71401)" fill="#5383ca"/><path d="M935.98936,323.78649H716.6513a7.15369,7.15369,0,1,1,0-14.30738H935.98936a7.15369,7.15369,0,0,1,0,14.30738Z" transform="translate(-233.57333 -142.71401)" fill="#5383ca"/><path d="M811.72907,352.0529H716.6513a7.15369,7.15369,0,1,1,0-14.30738h95.07777a7.15369,7.15369,0,0,1,0,14.30738Z" transform="translate(-233.57333 -142.71401)" fill="#5383ca"/><circle cx="540.43422" cy="281.80018" r="16.46545" fill="#e6e7e8"/><path d="M912.78526,460.97442H762.44542a4.90308,4.90308,0,1,1,0-9.80615H912.78526a4.90308,4.90308,0,1,1,0,9.80615Z" transform="translate(-233.57333 -142.71401)" fill="#e6e7e8"/><path d="M912.78526,480.34893H762.44542a4.90332,4.90332,0,0,1,0-9.80664H912.78526a4.90332,4.90332,0,1,1,0,9.80664Z" transform="translate(-233.57333 -142.71401)" fill="#e6e7e8"/><path d="M827.61412,499.72345h-65.1687a4.90332,4.90332,0,0,1,0-9.80664h65.1687a4.90332,4.90332,0,0,1,0,9.80664Z" transform="translate(-233.57333 -142.71401)" fill="#e6e7e8"/><circle cx="487.88315" cy="446.45868" r="16.46545" fill="#e6e7e8"/><path d="M860.23419,625.63292H709.89435a4.90308,4.90308,0,1,1,0-9.80615H860.23419a4.90308,4.90308,0,1,1,0,9.80615Z" transform="translate(-233.57333 -142.71401)" fill="#e6e7e8"/><path d="M860.23419,645.00743H709.89435a4.90332,4.90332,0,0,1,0-9.80664H860.23419a4.90332,4.90332,0,1,1,0,9.80664Z" transform="translate(-233.57333 -142.71401)" fill="#e6e7e8"/><path d="M775.06305,664.38194h-65.1687a4.90332,4.90332,0,0,1,0-9.80664h65.1687a4.90332,4.90332,0,0,1,0,9.80664Z" transform="translate(-233.57333 -142.71401)" fill="#e6e7e8"/><path d="M276.15143,719.213c-25.71428-12.185-44.86749-36.70044-41.87969-63.64221,23.06911,18.68018,54.47693,29.11157,86.90036,28.86194,12.62853-.09717,26.77178-1.3819,35.94872,5.70428,5.7102,4.40912,8.286,11.4104,8.61145,18.38813.32535,6.97808-1.3663,14.04034-3.04834,21.01043l.5115,1.65161C333.0036,733.10929,301.86571,731.39805,276.15143,719.213Z" transform="translate(-233.57333 -142.71401)" fill="#f2f2f2"/><path d="M234.90489,655.504c9.9453,19.40582,27.18807,35.57983,48.617,45.04706a51.442,51.442,0,0,0,14.82859,4.35675,33.5242,33.5242,0,0,0,15.42441-2.01624c4.6572-1.67114,9.248-3.84753,14.18726-4.5094a18.15754,18.15754,0,0,1,13.72064,3.69928c4.564,3.54926,7.28635,8.46069,9.7533,13.36029,2.73907,5.44006,5.48361,11.1366,10.84707,14.844.64987.44921-.25515,1.38348-.904.935-9.33151-6.45025-10.6781-18.11407-18.093-25.92639-3.46-3.64538-8.2622-6.28839-14.02652-5.86334-5.04061.37164-9.77649,2.61249-14.47891,4.33984a35.97734,35.97734,0,0,1-15.04559,2.46863,48.26278,48.26278,0,0,1-15.00934-3.81634,103.57874,103.57874,0,0,1-28.39854-17.67023,96.83465,96.83465,0,0,1-22.69579-28.81116c-.34354-.67035.93219-1.1037,1.27348-.43774Z" transform="translate(-233.57333 -142.71401)" fill="#fff"/><path d="M276.34358,697.81626a20.13523,20.13523,0,0,1-22.63786,5.75434c-.74841-.31488-.13725-1.41156.61214-1.09626a18.64071,18.64071,0,0,0,21.04919-5.39032c.52592-.63964,1.49947.09626.97653.7323Z" transform="translate(-233.57333 -142.71401)" fill="#fff"/><path d="M311.51329,704.00816a27.07555,27.07555,0,0,0-11.64455-18.87848c-.64785-.45136.257-1.3858.904-.935A28.1523,28.1523,0,0,1,312.843,703.86479c.092.75189-1.23826.89117-1.32975.14331Z" transform="translate(-233.57333 -142.71401)" fill="#fff"/><path d="M248.52242,675.85844a9.15428,9.15428,0,0,0,3.52949-8.18225c-.10275-.7497,1.22768-.88819,1.32976-.14331a10.24883,10.24883,0,0,1-3.88272,9.05786.76078.76078,0,0,1-.94028.10138.54535.54535,0,0,1-.03625-.83362Z" transform="translate(-233.57333 -142.71401)" fill="#fff"/><path d="M319.1111,598.6071c.07928.46539.15858.93078.24786,1.40008a101.68583,101.68583,0,0,0,5.02132,18.29028c.1647.46106.33965.92554.5193,1.38031a110.23449,110.23449,0,0,0,25.28423,38.16407A115.86438,115.86438,0,0,0,364.644,669.936c7.16547,5.07056,15.43543,10.02442,19.97,16.85584a18.14537,18.14537,0,0,1,1.28852,2.20678l-20.42969,41.33527c-.09751.077-.18509.15778-.28281.23523l-.73392,1.67755c-.284-.17157-.57388-.35522-.85787-.52679-.16526-.09888-.326-.20691-.49125-.30579-.10873-.06885-.21728-.13812-.32037-.19433-.03629-.02277-.07236-.046-.09851-.06543-.103-.05622-.19116-.11872-.284-.17157q-2.436-1.53379-4.85342-3.10535c-.01022-.00342-.01022-.00342-.0159-.016-12.25415-8.01282-23.7793-17.06732-33.24829-27.5141-.28476-.31439-.58-.63172-.85541-.965a103.13155,103.13155,0,0,1-11.26121-15.14862,88.691,88.691,0,0,1-4.78585-9.06677,73.20122,73.20122,0,0,1-6.36935-25.47949c-1.15389-17.643,4.07974-35.88617,17.09125-50.00916C318.439,599.31718,318.76776,598.96482,319.1111,598.6071Z" transform="translate(-233.57333 -142.71401)" fill="#f2f2f2"/><path d="M319.63359,598.88889c-5.69055,21.82178-3.72984,44.8368,5.90511,64.42a40.428,40.428,0,0,0,8.1528,11.69,27.28818,27.28818,0,0,0,12.913,6.60571c4.61807,1.09339,9.52841,1.72248,13.67447,3.824a14.41547,14.41547,0,0,1,7.76837,10.535c1.01441,5.471-.27212,11.10462-1.74188,16.59052-1.63187,6.091-3.43326,12.40246-1.92737,18.43872.18247.73138-1.12756,1.03595-1.30975.30566-2.62-10.50207,4.26749-21.12122,4.00445-31.7453-.12274-4.9574-1.929-9.78827-6.53241-12.53546-4.02545-2.40234-9.08807-3.055-13.778-4.12506a29.57157,29.57157,0,0,1-12.93561-6.01782,37.74511,37.74511,0,0,1-8.654-11.32911,88.27725,88.27725,0,0,1-9.30014-30.29852,97.48328,97.48328,0,0,1,2.51119-36.67364c.19656-.75379,1.445-.4336,1.24975.3153Z" transform="translate(-233.57333 -142.71401)" fill="#fff"/><path d="M322.0157,657.11912c-8.40434,2.63281-17.32017-.517-20.84408-7.32416-.34716-.67059.85276-1.2713,1.20039-.59979,3.30128,6.377,11.55205,9.23749,19.40829,6.77631.82677-.259,1.05747.89007.23542,1.14758Z" transform="translate(-233.57333 -142.71401)" fill="#fff"/><path d="M344.15543,681.33238a28.74725,28.74725,0,0,0,4.06134-22.29065c-.17951-.73212,1.13049-1.03693,1.30975-.30567a29.92178,29.92178,0,0,1-4.2785,23.19165C344.80789,682.61509,343.71768,682.016,344.15543,681.33238Z" transform="translate(-233.57333 -142.71401)" fill="#fff"/><path d="M316.05028,623.49516a11.29456,11.29456,0,0,0,8.18139-5.0373c.43058-.69134,1.52039-.09143,1.09261.59534a12.656,12.656,0,0,1-9.03859,5.58954c-.36171.04346-.69923-.08392-.77258-.421a.65808.65808,0,0,1,.53717-.72662Z" transform="translate(-233.57333 -142.71401)" fill="#fff"/><path d="M380.38275,321.91279l34.77136,36.92163,80.93167,29.66626,9.72535-18.067L443.53119,337.3166s-28.07855-29.33591-44.73642-35.37872Z" transform="translate(-233.57333 -142.71401)" fill="#a0616a"/><circle cx="270.91225" cy="238.4081" r="12" fill="#a0616a"/><path d="M407.36447,303.99,382.5116,325.934l-.117.03c-11.55484,2.9498-28.24353-10.67893-40.20846-22.63156a22.004,22.004,0,0,1-1.01337-30.02384h0a22.05258,22.05258,0,0,1,22.30484-6.666l20.2005,5.57272Z" transform="translate(-233.57333 -142.71401)" fill="#3f3d56"/><polygon points="201.586 597.14 218.714 597.139 226.862 531.074 201.583 531.075 201.586 597.14" fill="#a0616a"/><path d="M430.78973,734.26182l4.821-.00018,18.82211-7.65448,10.08808,7.65332h.00137a21.49726,21.49726,0,0,1,21.49615,21.49585v.69854l-55.22769.00208Z" transform="translate(-233.57333 -142.71401)" fill="#2f2e41"/><polygon points="125.586 597.14 142.714 597.139 150.862 531.074 125.583 531.075 125.586 597.14" fill="#a0616a"/><path d="M354.78973,734.26182l4.821-.00018,18.82211-7.65448,10.08808,7.65332h.00137a21.49726,21.49726,0,0,1,21.49615,21.49585v.69854l-55.22769.00208Z" transform="translate(-233.57333 -142.71401)" fill="#2f2e41"/><path d="M333.04208,455.288s-2,24,3,47,5,87.77561,5,87.77561l11,126.22442,33-3,9-211,32,71-3,10,3.99607,2.5s-2.99607,19.5-.99607,19.5,7,3,7,3l-4,103,34-1,12-145-13-83-1-16-4.5.185-2.29135-6.685-4.20865-11.5Z" transform="translate(-233.57333 -142.71401)" fill="#2f2e41"/><path d="M331.3136,460.329l-.17822-.25c-9.51856-13.32617,4.79736-45.34863,6.95654-49.99072l-9.09424-2.95118,2.04785-17.40771.97022-7.76074-6.95069-6.95069-.01953-.17334-4-35L315.22964,316.598a51.03664,51.03664,0,0,1,14.48584-49.46045l13.44336-12.67529L359.49673,230.288h26.34668l9.0337,17.06348a38.40114,38.40114,0,0,1,29.71191,39.207l-2.04736,44.75244,8.01513,55.72071.00489,10.084,9.02,10.02441-1.96973,9.84815,6.86474,2.94189,3.03125,14.14453c1.2544,1.65528,9.53418,12.69532,9.53418,15.71338,0,.45313-.33447.89112-1.05224,1.377-5.64258,3.8208-36.83008,11.61035-50.6333,6.08691-14.70313-5.87891-73.15039,2.94043-73.73926,3.03027Z" transform="translate(-233.57333 -142.71401)" fill="#3f3d56"/><path d="M547.37735,756.096a1.18646,1.18646,0,0,1-1.18292,1.19H265.89728a1.19,1.19,0,0,1,0-2.38h280.29a1.18651,1.18651,0,0,1,1.19006,1.18293Z" transform="translate(-233.57333 -142.71401)" fill="#ccc"/><circle cx="142.50016" cy="44.87737" r="34.89287" fill="#a0616a"/><path d="M379.41617,223.04917a94.89922,94.89922,0,0,1-16.10889-1.54443c-5.26269-1.2124-16.874-10.19092-20.03857-15.49512h0c-2.35108-3.94092-3.76221-10.03663-4.53223-14.45605a42.42143,42.42143,0,0,1,8.2861-33.4746,13.40233,13.40233,0,0,1,5.53076-4.479c.19581-.0708.397-.13281.6001-.18506a16.536,16.536,0,0,0,8.35449-4.876,13.64,13.64,0,0,1,1.40332-1.37158,20.3685,20.3685,0,0,1,8.60547-4.04638c5.085-1.2212,12.35889.30909,21.61914,4.55224,4.65235,2.13184,9.81592,1.53711,13.7959.78076a1.29551,1.29551,0,0,1,1.2085.44922,9.14508,9.14508,0,0,0,6.14941,2.63721c1.41309.09863,2.84668,2.0957,4.57471,4.69629.39209.59033.84961,1.27929,1.18164,1.6997l.06641-.78955.77734.90284a11.09724,11.09724,0,0,1-5.4751,17.94433,21.64051,21.64051,0,0,1-4.36914.58106c-.89258.05713-1.81592.11622-2.70263.24659a16.731,16.731,0,0,0-12.709,10.53272,4.37549,4.37549,0,0,1-6.65674,1.95312,7.22922,7.22922,0,0,0-6.5542-1.36914,4.799,4.799,0,0,0-2.18261,2.35059,6.25413,6.25413,0,0,1-2.44385,2.70654c-3.63281,1.75585-4.09131,9.938-2.98,16.79737,1.07129,6.61181,3.40185,11.435,5.66748,11.729,1.74414.22607,1.94092.35547,2.05957.668l.106.27978-.20313.25391C382.24869,222.95,381.09341,223.04917,379.41617,223.04917Z" transform="translate(-233.57333 -142.71401)" fill="#2f2e41"/><circle cx="317.01601" cy="283.08976" r="61.78912" fill="#5383ca"/><path d="M545.195,450.02134c-.13343,0-.26847-.0032-.40351-.00964a8.22978,8.22978,0,0,1-6.09906-3.17011L528.95389,434.322a8.245,8.245,0,0,1,1.44357-11.55829l.34885-.27167a8.24971,8.24971,0,0,1,11.56152,1.442,4.94015,4.94015,0,0,0,3.662,1.90335,4.84585,4.84585,0,0,0,3.83078-1.53683l19.77289-20.87244A8.24663,8.24663,0,0,1,581.217,403.113l.3215.30383a8.24589,8.24589,0,0,1,.31668,11.64511l-30.68335,32.38736A8.22274,8.22274,0,0,1,545.195,450.02134Z" transform="translate(-233.57333 -142.71401)" fill="#fff"/><path d="M387.45306,323.19581l24.23932,44.55008,70.72721,49.27154,14-15-51.8111-47.8659s-19.69553-35.51175-34.26916-45.59195Z" transform="translate(-233.57333 -142.71401)" fill="#a0616a"/><circle cx="258.84627" cy="269.30341" r="12" fill="#a0616a"/><path d="M389.63492,329.13462l-15.24268-36.583,5.51319-20.21679a22.05492,22.05492,0,0,1,17.11377-15.78223h0a22.00289,22.00289,0,0,1,25.30517,16.19c4.17481,16.38965,7.38086,37.69629-1.05127,46.12842l-.08545.08545Z" transform="translate(-233.57333 -142.71401)" fill="#3f3d56"/><path d="M729.59891,255.90921c-.05489,0-.11044-.00132-.166-.004a3.38573,3.38573,0,0,1-2.50913-1.30417l-4.0064-5.15052a3.392,3.392,0,0,1,.59388-4.755l.14352-.11177a3.3939,3.3939,0,0,1,4.75636.59323,2.03234,2.03234,0,0,0,1.50652.783,1.99354,1.99354,0,0,0,1.576-.63225l8.13448-8.58683a3.39264,3.39264,0,0,1,4.79009-.12963l.13226.125a3.39232,3.39232,0,0,1,.13028,4.79075l-12.623,13.324A3.38276,3.38276,0,0,1,729.59891,255.90921Z" transform="translate(-233.57333 -142.71401)" fill="#fff"/><path d="M920.53634,632.32537c7.14923,4.8529,15.096,10.31348,17.3999,19.171a14.56871,14.56871,0,0,1-1.48437,11.33524c-1.83454,3.05807-4.56787,5.46054-7.23407,7.77584-3.16736,2.75052-6.35974,5.45392-8.8172,8.88828-1.12537,1.57275,1.4754,3.07239,2.59039,1.51416,4.55591-6.36694,12.127-9.97357,16.13654-16.8063,4.74188-8.08082,1.57745-17.6641-4.29908-24.206-3.66729-4.08246-8.2658-7.19989-12.77795-10.26272-1.60162-1.08716-3.10431,1.511-1.51416,2.59042Z" transform="translate(-233.57333 -142.71401)" fill="#e6e7e8"/><path d="M945.53634,632.32537c7.14923,4.8529,15.096,10.31348,17.3999,19.171a14.56871,14.56871,0,0,1-1.48437,11.33524c-1.8346,3.05807-4.56787,5.46054-7.234,7.77584-3.16736,2.75052-6.35974,5.45392-8.8172,8.88828-1.12537,1.57275,1.4754,3.07239,2.59039,1.51416,4.55591-6.36694,12.127-9.97357,16.13648-16.8063,4.74194-8.08082,1.57751-17.6641-4.29908-24.206-3.66723-4.08246-8.2658-7.19989-12.77795-10.26272-1.60162-1.08716-3.10431,1.511-1.51416,2.59042Z" transform="translate(-233.57333 -142.71401)" fill="#e6e7e8"/><path d="M707.567,412.47934c1.59015-1.07943.08747-3.67758-1.51416-2.59042-4.51214,3.06284-9.11066,6.18027-12.77795,10.26273-5.87653,6.5419-9.041,16.12518-4.29907,24.206,4.00952,6.83273,11.58062,10.43936,16.13653,16.80631,1.115,1.55822,3.71576.05859,2.59039-1.51417-2.45745-3.43435-5.64984-6.13775-8.8172-8.88827-2.66619-2.31531-5.39953-4.71777-7.23407-7.77585a14.56869,14.56869,0,0,1-1.48437-11.33523c2.30389-8.85758,10.25067-14.31815,17.3999-19.17106Z" transform="translate(-233.57333 -142.71401)" fill="#e6e7e8"/><path d="M682.567,412.47934c1.59015-1.07943.08747-3.67758-1.51416-2.59042-4.51214,3.06284-9.11072,6.18027-12.77795,10.26273-5.87659,6.5419-9.041,16.12518-4.29907,24.206,4.00952,6.83273,11.58056,10.43936,16.13647,16.80631,1.115,1.55822,3.71576.05859,2.59039-1.51417-2.45746-3.43435-5.64984-6.13775-8.8172-8.88827-2.66613-2.31531-5.39941-4.71777-7.234-7.77585a14.56869,14.56869,0,0,1-1.48437-11.33523c2.30395-8.85758,10.25067-14.31815,17.3999-19.17106Z" transform="translate(-233.57333 -142.71401)" fill="#e6e7e8"/></svg>